<svg width="25" height="27" viewBox="0 0 25 27" fill="none" xmlns="http://www.w3.org/2000/svg">
<path d="M22.7097 26.5682C22.5955 26.5682 22.4812 26.5682 22.367 26.5682C22.3518 26.5622 22.3384 26.5542 22.3232 26.5522C21.8225 26.4979 21.4113 26.2588 21.0591 25.885C20.2385 25.0148 19.4122 24.1487 18.5898 23.2805C17.6854 22.328 16.7811 21.3734 15.8806 20.4188C15.8235 20.3585 15.7873 20.3545 15.7226 20.4007C15.595 20.4932 15.4599 20.5756 15.3266 20.658C13.9825 21.4819 12.5317 21.9401 10.9839 22.0627C10.2129 22.125 9.44561 22.0768 8.68027 21.9502C7.52654 21.7572 6.43754 21.3674 5.41518 20.7685C3.97016 19.9245 2.79168 18.773 1.88355 17.32C1.03253 15.9635 0.510876 14.4764 0.310972 12.8627C0.19103 11.8981 0.194838 10.9335 0.324299 9.97088C0.461376 8.94197 0.735529 7.95123 1.15247 7.00872C1.95589 5.18601 3.15912 3.71899 4.74312 2.60969C6.09485 1.66116 7.58746 1.10851 9.20192 0.925639C10.2738 0.803053 11.3399 0.863341 12.3966 1.10248C13.6798 1.39187 14.864 1.92843 15.9472 2.70816C16.9715 3.44569 17.8416 4.35202 18.546 5.42917C19.5722 6.99867 20.1528 8.74301 20.2975 10.6441C20.3623 11.5022 20.3299 12.3563 20.1966 13.2043C19.9701 14.6372 19.4922 15.9716 18.7478 17.1954C18.6926 17.2859 18.6964 17.3321 18.7687 17.4105C20.4917 19.2271 22.2109 21.0458 23.9339 22.8625C24.1814 23.1238 24.3737 23.4152 24.4746 23.7689C24.5183 23.9216 24.5412 24.0803 24.5736 24.2371C24.5736 24.3577 24.5736 24.4782 24.5736 24.5988C24.5678 24.631 24.5602 24.6631 24.5545 24.6953C24.4346 25.5273 24.0024 26.104 23.2694 26.4195C23.0924 26.4959 22.8963 26.52 22.7097 26.5682ZM10.2757 5.14783C6.96491 5.1418 4.29572 7.95525 4.28239 11.466C4.26906 14.9567 6.94777 17.7963 10.2681 17.8063C13.5789 17.8164 16.2728 14.9768 16.2747 11.4761C16.2747 7.97534 13.5998 5.15385 10.2757 5.14783Z" fill="white"/>
</svg>
